HIERARCHY
ROOT Hips
{
	OFFSET 0.000000 0.000000 0.000000
	CHANNELS 6 Xposition Yposition Zposition Yrotation Xrotation Zrotation
	JOINT Chest
	{
		OFFSET 0.000000 -0.009281 11.569106
		CHANNELS 3 Yrotation Xrotation Zrotation
		JOINT Chest2
		{
			OFFSET -0.000000 0.016865 9.269641
			CHANNELS 3 Yrotation Xrotation Zrotation
			JOINT Chest3
			{
				OFFSET -0.000000 0.000001 8.374491
				CHANNELS 3 Yrotation Xrotation Zrotation
				JOINT Chest4
				{
					OFFSET -0.000000 0.000001 8.374493
					CHANNELS 3 Yrotation Xrotation Zrotation
					JOINT Neck
					{
						OFFSET -0.000000 0.000002 12.152554
						CHANNELS 3 Yrotation Xrotation Zrotation
						JOINT Head
						{
							OFFSET -0.000000 0.040101 7.802319
							CHANNELS 3 Yrotation Xrotation Zrotation
							End Site
							{
								OFFSET -0.000000 0.020947 14.853096
							}
						}
					}
					JOINT RightCollar
					{
						OFFSET 2.894404 0.000001 6.791374
						CHANNELS 3 Yrotation Xrotation Zrotation
						JOINT RightShoulder
						{
							OFFSET 13.574684 0.000001 0.000000
							CHANNELS 3 Yrotation Xrotation Zrotation
							JOINT RightElbow
							{
								OFFSET 23.923903 0.000002 0.000000
								CHANNELS 3 Yrotation Xrotation Zrotation
								JOINT RightWrist
								{
									OFFSET 19.846718 0.012767 0.000000
									CHANNELS 3 Yrotation Xrotation Zrotation
									End Site
									{
										OFFSET 14.973145 0.000001 0.000000
									}
								}
							}
						}
					}
					JOINT LeftCollar
					{
						OFFSET -2.894404 0.000001 6.791374
						CHANNELS 3 Yrotation Xrotation Zrotation
						JOINT LeftShoulder
						{
							OFFSET -13.574684 -0.000001 0.000000
							CHANNELS 3 Yrotation Xrotation Zrotation
							JOINT LeftElbow
							{
								OFFSET -23.923903 -0.000002 0.000000
								CHANNELS 3 Yrotation Xrotation Zrotation
								JOINT LeftWrist
								{
									OFFSET -19.846718 0.012763 0.000000
									CHANNELS 3 Yrotation Xrotation Zrotation
									End Site
									{
										OFFSET -14.973145 -0.000001 0.000000
									}
								}
							}
						}
					}
				}
			}
		}
	}
	JOINT RightHip
	{
		OFFSET 9.469263 0.004643 0.045487
		CHANNELS 3 Yrotation Xrotation Zrotation
		JOINT RightKnee
		{
			OFFSET 0.000000 0.002661 -40.478676
			CHANNELS 3 Yrotation Xrotation Zrotation
			JOINT RightAnkle
			{
				OFFSET 0.000000 0.049106 -35.224068
				CHANNELS 3 Yrotation Xrotation Zrotation
				JOINT RightToe
				{
					OFFSET -0.000001 12.539529 -6.151390
					CHANNELS 3 Yrotation Xrotation Zrotation
					End Site
					{
						OFFSET -0.000001 5.044994 -1.291870
					}
				}
			}
		}
	}
	JOINT LeftHip
	{
		OFFSET -9.469263 0.004641 0.045487
		CHANNELS 3 Yrotation Xrotation Zrotation
		JOINT LeftKnee
		{
			OFFSET 0.000000 0.002661 -40.478676
			CHANNELS 3 Yrotation Xrotation Zrotation
			JOINT LeftAnkle
			{
				OFFSET 0.000000 0.049106 -35.224068
				CHANNELS 3 Yrotation Xrotation Zrotation
				JOINT LeftToe
				{
					OFFSET -0.000001 12.539529 -6.151390
					CHANNELS 3 Yrotation Xrotation Zrotation
					End Site
					{
						OFFSET -0.000001 5.044994 -1.291870
					}
				}
			}
		}
	}
}
MOTION
Frames: 9
Frame Time: 0.016667
12.567451 4.813963 82.909874 -6.096369 -2.315743 -110.715789 -0.388151 -4.747085 1.258481 -0.160518 -2.109337 0.558569 -0.160518 -2.109337 0.558573 -0.118445 -1.582151 0.418328 0.856791 -16.500984 -3.121228 0.478862 5.518519 -5.488856 1.916408 15.035879 -5.634431 34.809557 52.029847 30.259647 41.929302 3.226145 71.582527 -8.486406 28.682953 18.064669 -4.177385 13.779059 -3.456904 -31.884733 49.838856 -29.781691 -31.106071 9.421386 -70.351672 4.054715 35.415504 -19.600078 -0.127610 -8.849980 -3.400801 1.850735 -4.100540 -3.790971 -1.570949 6.190400 1.168251 -0.033264 -0.024003 -0.014907 -0.125781 -10.499668 2.232243 0.554942 -2.000256 2.267807 -0.464958 5.962962 1.452535 0.045135 0.014489 0.014738 
12.579670 4.801291 82.909378 -6.088659 -2.301743 -110.686822 -0.395066 -4.757672 1.246063 -0.163335 -2.114200 0.552302 -0.163335 -2.114200 0.552306 -0.120576 -1.585800 0.413613 0.857156 -16.590608 -3.093855 0.492561 5.352859 -5.436101 1.808728 15.069412 -5.689779 34.555454 51.980284 30.290246 41.856485 3.770161 71.372697 -7.096732 27.474958 16.989857 -4.113185 13.897755 -3.412002 -31.438206 49.683749 -29.581529 -31.141496 9.760693 -70.043576 3.448172 35.114119 -19.149945 -0.130286 -8.863770 -3.418779 1.854717 -4.079999 -3.798754 -1.560517 6.199165 1.169056 -0.040126 -0.025694 -0.015101 -0.128507 -10.498433 2.224300 0.565752 -1.992753 2.269155 -0.488271 5.957926 1.429627 0.043797 0.015150 0.014815 
12.591103 4.790938 82.908546 -6.088442 -2.286574 -110.658012 -0.405876 -4.775220 1.234419 -0.168103 -2.121902 0.546845 -0.168104 -2.121902 0.546852 -0.124165 -1.591579 0.409509 0.855050 -16.683511 -3.064127 0.502557 5.181062 -5.379850 1.712679 15.194949 -5.755924 34.248228 51.906262 30.293293 41.600486 4.269468 71.097939 -5.798005 26.247939 15.852350 -4.024846 14.008055 -3.348471 -30.946928 49.521843 -29.371985 -31.073375 10.114182 -69.652869 2.899280 34.912232 -18.733150 -0.140458 -8.884672 -3.452505 1.861163 -4.058101 -3.800234 -1.545249 6.209578 1.175051 -0.048525 -0.029306 -0.014802 -0.139393 -10.498056 2.211590 0.580871 -1.994339 2.268583 -0.507787 5.955896 1.413345 0.040151 0.016203 0.014158 
12.600120 4.782002 82.907227 -6.090864 -2.273459 -110.627529 -0.418982 -4.804123 1.229584 -0.173392 -2.134718 0.544465 -0.173392 -2.134718 0.544464 -0.128127 -1.601195 0.407695 0.858501 -16.778184 -3.041588 0.520306 5.006003 -5.334999 1.604102 15.309589 -5.853450 33.948260 51.877899 30.322229 40.995571 4.694337 70.737763 -4.572010 24.934934 14.785340 -3.921167 14.134318 -3.270574 -30.425484 49.326028 -29.174303 -30.984228 10.549937 -69.207964 2.209661 34.571651 -18.354351 -0.147296 -8.907014 -3.488150 1.864064 -4.035740 -3.816900 -1.525727 6.220219 1.190822 -0.056228 -0.033645 -0.014513 -0.146959 -10.496452 2.218981 0.591213 -2.001109 2.237304 -0.520310 5.956549 1.411012 0.035298 0.015670 0.013644 
12.606396 4.771606 82.905785 -6.094901 -2.263942 -110.598958 -0.429633 -4.847617 1.220704 -0.177269 -2.153960 0.540842 -0.177269 -2.153960 0.540845 -0.131029 -1.615628 0.404961 0.859238 -16.862637 -3.014529 0.534169 4.849896 -5.282997 1.471480 15.379544 -5.951338 33.700987 51.876578 30.408473 40.087442 5.139910 70.376015 -3.215894 23.336774 13.640088 -3.822121 14.370429 -3.161022 -29.875384 49.034594 -28.968236 -30.918934 11.093111 -68.708199 1.253063 33.972439 -17.912748 -0.151282 -8.934925 -3.528411 1.869759 -4.004778 -3.823559 -1.511058 6.226846 1.204540 -0.061778 -0.038335 -0.014037 -0.148409 -10.495176 2.216181 0.597464 -2.010822 2.223734 -0.531541 5.958716 1.401209 0.029999 0.014014 0.013353 
12.610091 4.763901 82.904526 -6.096051 -2.251271 -110.570196 -0.438956 -4.903745 1.207471 -0.180595 -2.179036 0.534658 -0.180594 -2.179035 0.534657 -0.133522 -1.634436 0.400300 0.853981 -16.935090 -2.986755 0.536700 4.715870 -5.232042 1.341421 15.464715 -6.034129 33.516138 51.890498 30.579016 39.103513 5.638119 70.019193 -1.699510 21.388734 12.266336 -3.693518 14.602152 -3.001898 -29.430814 48.767950 -28.882589 -30.932841 11.735412 -68.195839 0.053433 33.215316 -17.214525 -0.164000 -8.953757 -3.583998 1.886318 -3.980847 -3.811650 -1.502900 6.236015 1.220152 -0.065580 -0.042910 -0.013808 -0.156886 -10.490514 2.194761 0.611759 -2.013952 2.228789 -0.547325 5.955596 1.384293 0.026610 0.011933 0.012219 
12.611938 4.759459 82.903488 -6.098196 -2.239047 -110.545963 -0.441891 -4.958125 1.193776 -0.181591 -2.203222 0.528258 -0.181592 -2.203222 0.528256 -0.134272 -1.652575 0.395490 0.840792 -17.017693 -2.962053 0.523783 4.562633 -5.189412 1.219278 15.577413 -6.110499 33.352510 51.941389 30.815816 38.334853 6.115964 69.644598 -0.174843 19.158472 10.735683 -3.564210 14.762919 -2.835122 -29.043125 48.590017 -28.892414 -31.057891 12.444989 -67.683801 -1.259188 32.429359 -16.241666 -0.178776 -8.967216 -3.612344 1.903764 -3.964376 -3.814902 -1.494909 6.246451 1.225669 -0.067686 -0.046262 -0.013687 -0.169563 -10.486891 2.193116 0.626958 -2.013817 2.212451 -0.557565 5.949123 1.386464 0.022451 0.010734 0.011598 
12.609686 4.756041 82.902847 -6.097748 -2.228648 -110.529038 -0.441694 -5.019468 1.186724 -0.181459 -2.230681 0.524262 -0.181459 -2.230681 0.524265 -0.134163 -1.673167 0.392486 0.826200 -17.089961 -2.944136 0.505518 4.428372 -5.160024 1.077900 15.796155 -6.210323 33.158301 51.955893 31.012546 37.741552 6.535905 69.261752 1.434194 16.872855 9.171479 -3.440173 15.017808 -2.693943 -28.594882 48.400957 -28.838466 -31.215751 13.145782 -67.123254 -2.545991 31.596680 -15.237665 -0.187784 -8.971604 -3.604278 1.915285 -3.952544 -3.842672 -1.484341 6.253826 1.223588 -0.069225 -0.047489 -0.012469 -0.176741 -10.481092 2.207141 0.637413 -2.009514 2.191750 -0.567237 5.937250 1.380437 0.019159 0.010306 0.011689 
12.603445 4.752461 82.902718 -6.096709 -2.214457 -110.514442 -0.450179 -5.078625 1.186339 -0.185678 -2.256950 0.523516 -0.185678 -2.256950 0.523520 -0.137307 -1.692873 0.391902 0.822468 -17.167771 -2.932823 0.505221 4.284058 -5.138994 0.931665 16.096256 -6.360125 32.893330 51.867528 31.113243 36.968676 6.844997 68.846148 3.085285 14.765240 7.714845 -3.309471 15.303010 -2.577660 -28.060217 48.196533 -28.689130 -31.190458 13.825275 -66.512287 -3.827715 30.733987 -14.339222 -0.196535 -8.971491 -3.598617 1.921026 -3.939766 -3.870931 -1.471259 6.256084 1.223560 -0.070999 -0.047065 -0.011164 -0.185932 -10.468474 2.209526 0.647808 -2.009508 2.186118 -0.579765 5.922607 1.355418 0.017104 0.011546 0.011524 
